<?xml version="1.0" standalone="no"?>
<!DOCTYPE svg PUBLIC "-//W3C//DTD SVG 20010904//EN"
 "http://www.w3.org/TR/2001/REC-SVG-20010904/DTD/svg10.dtd">
<svg version="1.0" xmlns="http://www.w3.org/2000/svg"
 width="500.000000pt" height="500.000000pt" viewBox="0 0 500.000000 500.000000"
 preserveAspectRatio="xMidYMid meet">

<g transform="translate(0.000000,500.000000) scale(0.100000,-0.100000)"
fill="#000000" stroke="none">
<path d="M3125 4195 c92 -239 -76 -554 -489 -913 l-98 -86 38 -33 c22 -18 42
-32 46 -30 4 1 78 65 165 142 236 210 236 212 -10 -70 -58 -66 -103 -123 -101
-126 2 -4 42 -39 88 -78 l85 -72 33 17 c92 47 193 129 253 204 137 175 192
345 182 559 -6 137 -31 232 -88 341 -37 71 -121 187 -104 145z"/>
<path d="M2415 4039 c-43 -12 -112 -73 -138 -123 -33 -62 -30 -166 6 -228 33
-56 89 -105 137 -118 55 -16 141 -11 185 9 51 23 118 98 133 149 37 121 -20
251 -133 303 -43 20 -136 24 -190 8z"/>
<path d="M1210 2115 l0 -135 24 0 c23 0 25 4 28 53 3 45 6 52 26 55 21 3 22 0
22 -52 0 -56 0 -56 30 -56 l30 0 0 135 0 135 -30 0 c-30 0 -30 -1 -30 -55 0
-52 -1 -55 -25 -55 -24 0 -25 3 -25 55 0 52 -1 55 -25 55 l-25 0 0 -135z"/>
<path d="M1430 2231 c-5 -11 -10 -72 -10 -135 l0 -116 30 0 c29 0 30 2 30 45
0 38 3 45 20 45 17 0 20 -7 20 -45 0 -43 1 -45 30 -45 l30 0 0 123 c0 82 -4
127 -12 135 -7 7 -38 12 -70 12 -46 0 -59 -4 -68 -19z m90 -66 c0 -38 -3 -45
-20 -45 -17 0 -20 7 -20 45 0 38 3 45 20 45 17 0 20 -7 20 -45z"/>
<path d="M1642 2238 c-8 -8 -12 -56 -12 -135 l0 -123 30 0 30 0 0 115 c0 108
1 115 20 115 19 0 20 -7 20 -115 l0 -115 30 0 30 0 0 115 c0 96 3 115 15 115
12 0 15 -19 15 -115 l0 -115 30 0 30 0 0 124 c0 87 -4 127 -13 134 -17 14
-211 14 -225 0z"/>
<path d="M1930 2115 l0 -135 30 0 c30 0 30 0 30 56 0 47 3 55 18 52 13 -2 18
-15 20 -56 3 -48 5 -52 28 -52 25 0 25 1 24 78 0 42 2 92 6 110 4 22 1 40 -10
57 -15 22 -23 25 -81 25 l-65 0 0 -135z m100 55 c0 -33 -3 -40 -20 -40 -17 0
-20 7 -20 40 0 33 3 40 20 40 17 0 20 -7 20 -40z"/>
<path d="M2140 2231 c-14 -28 -13 -224 2 -239 16 -16 120 -16 136 0 8 8 12 50
12 123 0 73 -4 115 -12 123 -7 7 -38 12 -70 12 -46 0 -59 -4 -68 -19z m90
-116 c0 -88 -1 -95 -20 -95 -19 0 -20 7 -20 95 0 88 1 95 20 95 19 0 20 -7 20
-95z"/>
<path d="M2440 2231 c-15 -29 -12 -93 6 -119 11 -15 25 -22 50 -22 32 0 34 -2
34 -35 0 -28 -4 -35 -20 -35 -13 0 -20 7 -20 20 0 16 -7 20 -30 20 -25 0 -30
-4 -30 -23 0 -45 20 -58 85 -55 l60 3 9 38 c6 23 6 51 0 75 -8 35 -12 37 -51
40 -42 3 -43 4 -43 38 0 36 25 49 36 19 4 -8 17 -15 30 -15 18 0 24 5 24 23 0
35 -19 47 -77 47 -41 0 -54 -4 -63 -19z"/>
<path d="M2623 2238 c2 -7 13 -68 23 -135 l19 -123 31 0 c36 0 39 5 49 84 4
31 10 54 14 51 3 -4 11 -34 16 -68 10 -60 11 -62 42 -65 37 -4 34 -13 61 156
l19 112 -28 0 c-26 0 -28 -4 -34 -47 -3 -27 -9 -70 -14 -98 l-7 -50 -14 98
c-13 96 -14 97 -41 97 -27 0 -27 -1 -40 -92 -14 -102 -22 -96 -34 25 -7 67 -7
67 -37 67 -20 0 -29 -4 -25 -12z"/>
<path d="M2946 2235 c-3 -9 -6 -70 -6 -136 l0 -119 25 0 c23 0 25 4 25 45 0
41 2 45 25 45 23 0 25 -4 25 -45 0 -41 2 -45 25 -45 l26 0 -3 133 -3 132 -66
3 c-54 2 -68 0 -73 -13z m94 -70 c0 -41 -2 -45 -25 -45 -23 0 -25 4 -25 45 0
41 2 45 25 45 23 0 25 -4 25 -45z"/>
<path d="M3162 2238 c-16 -16 -16 -123 1 -136 6 -6 28 -12 47 -14 31 -3 35 -6
35 -33 0 -36 -33 -49 -42 -16 -3 14 -13 21 -29 21 -20 0 -24 -5 -24 -28 0 -15
5 -33 12 -40 16 -16 110 -16 126 0 16 16 16 123 -1 136 -6 6 -28 12 -47 14
-31 3 -35 6 -35 33 0 20 5 31 18 33 10 2 17 -3 17 -12 0 -11 9 -16 30 -16 32
0 38 16 20 51 -9 15 -22 19 -63 19 -29 0 -58 -5 -65 -12z"/>
<path d="M3330 2225 c0 -18 5 -25 20 -25 19 0 20 -7 20 -110 l0 -110 30 0 30
0 0 110 0 110 25 0 c20 0 25 5 25 25 0 24 -2 25 -75 25 -73 0 -75 -1 -75 -25z"/>
<path d="M3510 2115 l0 -135 30 0 c30 0 30 0 30 56 0 52 1 55 23 52 19 -3 22
-10 25 -55 3 -51 4 -53 33 -53 l29 0 0 135 0 135 -30 0 c-30 0 -30 -1 -30 -55
0 -52 -1 -55 -25 -55 -24 0 -25 3 -25 55 0 54 0 55 -30 55 l-30 0 0 -135z"/>
<path d="M3736 2235 c-3 -9 -6 -70 -6 -136 l0 -119 25 0 c23 0 25 4 25 45 0
41 2 45 25 45 23 0 25 -4 25 -45 0 -41 2 -45 25 -45 l26 0 -3 133 -3 132 -66
3 c-54 2 -68 0 -73 -13z m94 -70 c0 -41 -2 -45 -25 -45 -23 0 -25 4 -25 45 0
41 2 45 25 45 23 0 25 -4 25 -45z"/>
<path d="M1970 1545 l0 -135 30 0 c30 0 30 1 30 55 0 30 4 55 9 55 5 0 18 -24
29 -52 17 -47 23 -53 51 -56 l31 -3 -26 71 c-27 71 -27 72 -10 123 10 29 20
58 23 65 4 10 -3 13 -22 10 -23 -2 -31 -12 -48 -55 -11 -29 -24 -53 -28 -53
-5 0 -9 25 -9 55 0 54 0 55 -30 55 l-30 0 0 -135z"/>
<path d="M2180 1545 l0 -135 60 0 c57 0 60 1 60 25 0 21 -5 25 -30 25 -27 0
-30 3 -30 29 0 25 4 30 28 33 19 2 28 9 30 26 3 19 -1 22 -27 22 -28 0 -31 3
-31 30 0 27 3 30 30 30 25 0 30 4 30 25 0 24 -3 25 -60 25 l-60 0 0 -135z"/>
<path d="M2350 1661 c-5 -11 -10 -72 -10 -135 l0 -116 30 0 30 0 0 115 c0 108
1 115 20 115 19 0 20 -7 20 -115 l0 -115 30 0 30 0 0 116 c0 63 -5 124 -10
135 -9 15 -22 19 -70 19 -48 0 -61 -4 -70 -19z"/>
<path d="M2550 1545 l0 -135 63 0 c36 0 68 5 75 12 17 17 17 229 0 246 -7 7
-39 12 -75 12 l-63 0 0 -135z m95 0 c0 -86 -1 -90 -22 -93 -22 -3 -23 -1 -23
93 0 94 1 96 23 93 21 -3 22 -7 22 -93z"/>
<path d="M2760 1545 l0 -135 25 0 c24 0 25 3 25 55 0 48 2 55 20 55 18 0 20
-7 20 -55 0 -54 0 -55 30 -55 30 0 30 0 30 56 0 30 -5 64 -10 74 -7 13 -7 21
0 25 5 3 10 26 10 50 0 54 -16 65 -94 65 l-56 0 0 -135z m90 55 c0 -33 -3 -40
-20 -40 -17 0 -20 7 -20 40 0 33 3 40 20 40 17 0 20 -7 20 -40z"/>
<path d="M2972 1668 c-8 -8 -12 -53 -12 -135 l0 -123 30 0 c29 0 30 2 30 45 0
38 3 45 20 45 17 0 20 -7 20 -45 0 -43 1 -45 30 -45 l30 0 0 116 c0 63 -5 124
-10 135 -9 15 -22 19 -68 19 -32 0 -63 -5 -70 -12z m88 -73 c0 -38 -3 -45 -20
-45 -17 0 -20 7 -20 45 0 38 3 45 20 45 17 0 20 -7 20 -45z"/>
</g>
</svg>
